<mxfile host="app.diagrams.net" modified="2021-12-19T22:27:25.845Z" agent="5.0 (Windows NT 10.0; Win64; x64) AppleWebKit/537.36 (KHTML, like Gecko) Chrome/96.0.4664.110 Safari/537.36" etag="eo4FV5__uOChpildK-J_" version="16.0.0" type="github">
  <diagram id="Koaj51vNmGw6clWqZu_v" name="Page-1">
    <mxGraphModel dx="964" dy="1669" grid="1" gridSize="10" guides="1" tooltips="1" connect="1" arrows="1" fold="1" page="1" pageScale="1" pageWidth="827" pageHeight="1169" math="0" shadow="0">
      <root>
        <mxCell id="0" />
        <mxCell id="1" parent="0" />
        <mxCell id="dC7TwkIw_CCHCllpUpHx-26" value="" style="edgeStyle=orthogonalEdgeStyle;rounded=0;orthogonalLoop=1;jettySize=auto;html=1;endArrow=diamond;endFill=1;" parent="1" source="zaY1Wz4RGqaM3Yld15WV-5" target="dC7TwkIw_CCHCllpUpHx-25" edge="1">
          <mxGeometry relative="1" as="geometry" />
        </mxCell>
        <mxCell id="zaY1Wz4RGqaM3Yld15WV-5" value="&lt;p style=&quot;margin: 0px ; margin-top: 4px ; text-align: center&quot;&gt;&lt;b&gt;Level&lt;/b&gt;&lt;/p&gt;&lt;hr size=&quot;1&quot;&gt;&lt;p style=&quot;margin: 0px ; margin-left: 4px&quot;&gt;+selectedPaper: Paper&lt;/p&gt;&lt;hr size=&quot;1&quot;&gt;&lt;p style=&quot;margin: 0px ; margin-left: 4px&quot;&gt;&lt;br&gt;&lt;/p&gt;" style="verticalAlign=top;align=left;overflow=fill;fontSize=12;fontFamily=Helvetica;html=1;" parent="1" vertex="1">
          <mxGeometry x="245" y="-328.45" width="160" height="84.38" as="geometry" />
        </mxCell>
        <mxCell id="zaY1Wz4RGqaM3Yld15WV-8" style="edgeStyle=orthogonalEdgeStyle;rounded=0;orthogonalLoop=1;jettySize=auto;html=1;entryX=0.5;entryY=1;entryDx=0;entryDy=0;endArrow=diamond;endFill=0;" parent="1" source="zaY1Wz4RGqaM3Yld15WV-6" target="zaY1Wz4RGqaM3Yld15WV-5" edge="1">
          <mxGeometry relative="1" as="geometry">
            <Array as="points">
              <mxPoint x="325" y="-228.38" />
            </Array>
          </mxGeometry>
        </mxCell>
        <mxCell id="zaY1Wz4RGqaM3Yld15WV-6" value="&lt;p style=&quot;margin: 0px ; margin-top: 4px ; text-align: center&quot;&gt;&lt;b&gt;Paper&lt;/b&gt;&lt;/p&gt;&lt;hr size=&quot;1&quot;&gt;&lt;p style=&quot;margin: 0px ; margin-left: 4px&quot;&gt;&lt;span&gt;-platforms: Platform[ ]&lt;/span&gt;&lt;br&gt;&lt;/p&gt;&lt;p style=&quot;margin: 0px ; margin-left: 4px&quot;&gt;&lt;span&gt;-isFolded: boolean&lt;/span&gt;&lt;br&gt;&lt;/p&gt;&lt;hr size=&quot;1&quot;&gt;&lt;p style=&quot;margin: 0px ; margin-left: 4px&quot;&gt;&lt;span&gt;+Fold(foldLine: Vector2): void&lt;/span&gt;&lt;br&gt;&lt;/p&gt;" style="verticalAlign=top;align=left;overflow=fill;fontSize=12;fontFamily=Helvetica;html=1;" parent="1" vertex="1">
          <mxGeometry x="220" y="-210" width="210" height="100" as="geometry" />
        </mxCell>
        <mxCell id="zaY1Wz4RGqaM3Yld15WV-9" value="Level" style="html=1;" parent="1" vertex="1">
          <mxGeometry x="210" y="-890" width="110" height="50" as="geometry" />
        </mxCell>
        <mxCell id="zaY1Wz4RGqaM3Yld15WV-13" style="edgeStyle=orthogonalEdgeStyle;rounded=0;orthogonalLoop=1;jettySize=auto;html=1;entryX=1;entryY=0.5;entryDx=0;entryDy=0;endArrow=diamond;endFill=1;" parent="1" source="zaY1Wz4RGqaM3Yld15WV-10" target="zaY1Wz4RGqaM3Yld15WV-9" edge="1">
          <mxGeometry relative="1" as="geometry" />
        </mxCell>
        <mxCell id="zaY1Wz4RGqaM3Yld15WV-10" value="Paper" style="html=1;" parent="1" vertex="1">
          <mxGeometry x="520" y="-890" width="110" height="50" as="geometry" />
        </mxCell>
        <mxCell id="zaY1Wz4RGqaM3Yld15WV-41" value="" style="edgeStyle=orthogonalEdgeStyle;rounded=0;orthogonalLoop=1;jettySize=auto;html=1;endArrow=diamond;endFill=0;entryX=0.25;entryY=0;entryDx=0;entryDy=0;exitX=0.5;exitY=1;exitDx=0;exitDy=0;" parent="1" source="zaY1Wz4RGqaM3Yld15WV-11" edge="1">
          <mxGeometry relative="1" as="geometry">
            <Array as="points">
              <mxPoint x="195" y="-910" />
              <mxPoint x="251" y="-910" />
            </Array>
            <mxPoint x="251.5" y="-890" as="targetPoint" />
          </mxGeometry>
        </mxCell>
        <mxCell id="zaY1Wz4RGqaM3Yld15WV-11" value="Player" style="html=1;" parent="1" vertex="1">
          <mxGeometry x="140" y="-980" width="110" height="50" as="geometry" />
        </mxCell>
        <mxCell id="eu6zziCOJwqzqlKVUJ-7-1" style="edgeStyle=orthogonalEdgeStyle;rounded=0;orthogonalLoop=1;jettySize=auto;html=1;entryX=0.5;entryY=1;entryDx=0;entryDy=0;endArrow=diamond;endFill=1;" parent="1" source="zaY1Wz4RGqaM3Yld15WV-16" target="zaY1Wz4RGqaM3Yld15WV-10" edge="1">
          <mxGeometry relative="1" as="geometry" />
        </mxCell>
        <mxCell id="zaY1Wz4RGqaM3Yld15WV-16" value="Folding Base" style="html=1;" parent="1" vertex="1">
          <mxGeometry x="520" y="-800" width="110" height="50" as="geometry" />
        </mxCell>
        <mxCell id="UpdANQ4ARTgffwiDii0F-19" style="edgeStyle=orthogonalEdgeStyle;rounded=0;orthogonalLoop=1;jettySize=auto;html=1;endArrow=block;endFill=0;exitX=0.5;exitY=0;exitDx=0;exitDy=0;" parent="1" source="zaY1Wz4RGqaM3Yld15WV-18" edge="1">
          <mxGeometry relative="1" as="geometry">
            <Array as="points">
              <mxPoint x="480" y="-775" />
            </Array>
            <mxPoint x="520" y="-775" as="targetPoint" />
          </mxGeometry>
        </mxCell>
        <mxCell id="zaY1Wz4RGqaM3Yld15WV-18" value="Folding Area" style="html=1;" parent="1" vertex="1">
          <mxGeometry x="425" y="-719" width="110" height="50" as="geometry" />
        </mxCell>
        <mxCell id="HBH2WMDVjw6LBUJq_JoA-7" style="edgeStyle=orthogonalEdgeStyle;rounded=0;orthogonalLoop=1;jettySize=auto;html=1;entryX=1;entryY=0.25;entryDx=0;entryDy=0;endArrow=diamond;endFill=1;" parent="1" source="zaY1Wz4RGqaM3Yld15WV-27" target="zaY1Wz4RGqaM3Yld15WV-16" edge="1">
          <mxGeometry relative="1" as="geometry" />
        </mxCell>
        <mxCell id="zaY1Wz4RGqaM3Yld15WV-27" value="Platform points" style="whiteSpace=wrap;html=1;" parent="1" vertex="1">
          <mxGeometry x="670" y="-850" width="110" height="54" as="geometry" />
        </mxCell>
        <mxCell id="dC7TwkIw_CCHCllpUpHx-9" style="edgeStyle=orthogonalEdgeStyle;rounded=0;orthogonalLoop=1;jettySize=auto;html=1;entryX=0.75;entryY=1;entryDx=0;entryDy=0;endArrow=block;endFill=0;exitX=0.5;exitY=0;exitDx=0;exitDy=0;" parent="1" source="zaY1Wz4RGqaM3Yld15WV-30" target="dC7TwkIw_CCHCllpUpHx-1" edge="1">
          <mxGeometry relative="1" as="geometry">
            <Array as="points">
              <mxPoint x="414" y="200" />
              <mxPoint x="383" y="200" />
            </Array>
          </mxGeometry>
        </mxCell>
        <mxCell id="zaY1Wz4RGqaM3Yld15WV-30" value="&lt;p style=&quot;margin: 0px ; margin-top: 4px ; text-align: center&quot;&gt;&lt;b&gt;FoldingPlatform&lt;/b&gt;&lt;/p&gt;&lt;hr size=&quot;1&quot;&gt;&lt;p style=&quot;margin: 0px ; margin-left: 4px&quot;&gt;&lt;span&gt;-collider: EdgeCollider&lt;/span&gt;&lt;br&gt;&lt;/p&gt;&lt;hr size=&quot;1&quot;&gt;&lt;p style=&quot;margin: 0px 0px 0px 4px&quot;&gt;-SetCollider(): void&lt;/p&gt;&lt;p style=&quot;margin: 0px 0px 0px 4px&quot;&gt;&lt;br&gt;&lt;/p&gt;&lt;div&gt;&lt;span&gt;&lt;br&gt;&lt;/span&gt;&lt;/div&gt;" style="verticalAlign=top;align=left;overflow=fill;fontSize=12;fontFamily=Helvetica;html=1;" parent="1" vertex="1">
          <mxGeometry x="349" y="230" width="130" height="80" as="geometry" />
        </mxCell>
        <mxCell id="dC7TwkIw_CCHCllpUpHx-43" style="edgeStyle=orthogonalEdgeStyle;rounded=0;orthogonalLoop=1;jettySize=auto;html=1;entryX=1;entryY=0.5;entryDx=0;entryDy=0;endArrow=diamond;endFill=1;" parent="1" source="zaY1Wz4RGqaM3Yld15WV-33" target="dC7TwkIw_CCHCllpUpHx-1" edge="1">
          <mxGeometry relative="1" as="geometry" />
        </mxCell>
        <mxCell id="zaY1Wz4RGqaM3Yld15WV-33" value="&lt;p style=&quot;margin: 0px ; margin-top: 4px ; text-align: center&quot;&gt;&lt;b&gt;FoldPoint&lt;/b&gt;&lt;/p&gt;&lt;hr size=&quot;1&quot;&gt;&lt;p style=&quot;margin: 0px ; margin-left: 4px&quot;&gt;&lt;span&gt;+position: Vector2&lt;/span&gt;&lt;/p&gt;&lt;p style=&quot;margin: 0px ; margin-left: 4px&quot;&gt;-startPos: Vector2&lt;/p&gt;&lt;hr size=&quot;1&quot;&gt;&lt;p style=&quot;margin: 0px ; margin-left: 4px&quot;&gt;&lt;span&gt;+GetStartPos(): Vector2&lt;/span&gt;&lt;br&gt;&lt;/p&gt;&lt;p style=&quot;margin: 0px ; margin-left: 4px&quot;&gt;&lt;span&gt;+Reflect(): void&lt;/span&gt;&lt;/p&gt;" style="verticalAlign=top;align=left;overflow=fill;fontSize=12;fontFamily=Helvetica;html=1;" parent="1" vertex="1">
          <mxGeometry x="535" y="32.03" width="160" height="105.94" as="geometry" />
        </mxCell>
        <mxCell id="zaY1Wz4RGqaM3Yld15WV-43" value="" style="edgeStyle=orthogonalEdgeStyle;rounded=0;orthogonalLoop=1;jettySize=auto;html=1;endArrow=diamond;endFill=1;" parent="1" source="zaY1Wz4RGqaM3Yld15WV-35" target="zaY1Wz4RGqaM3Yld15WV-5" edge="1">
          <mxGeometry relative="1" as="geometry" />
        </mxCell>
        <mxCell id="zaY1Wz4RGqaM3Yld15WV-35" value="&lt;p style=&quot;margin: 0px ; margin-top: 4px ; text-align: center&quot;&gt;&lt;b&gt;Player&lt;/b&gt;&lt;/p&gt;&lt;hr size=&quot;1&quot;&gt;&lt;p style=&quot;margin: 0px 0px 0px 4px&quot;&gt;&lt;span&gt;-maxSpeed: float&lt;/span&gt;&lt;br&gt;&lt;/p&gt;&lt;div&gt;&amp;nbsp;-accelSpeed: float&lt;/div&gt;&lt;div&gt;&amp;nbsp;-decelSpeed: float&lt;/div&gt;&lt;div&gt;&amp;nbsp;-jumpHeight: float&lt;/div&gt;&lt;hr size=&quot;1&quot;&gt;&lt;p style=&quot;margin: 0px 0px 0px 4px&quot;&gt;-CheckSlope(): boolean&lt;/p&gt;&lt;p style=&quot;margin: 0px 0px 0px 4px&quot;&gt;&lt;span&gt;-Accel(): void&lt;/span&gt;&lt;br&gt;&lt;/p&gt;&lt;p style=&quot;margin: 0px 0px 0px 4px&quot;&gt;&lt;span&gt;-Decel(): void&lt;/span&gt;&lt;/p&gt;&lt;div&gt;&amp;nbsp;-Jump(): void&lt;/div&gt;&lt;div&gt;&amp;nbsp;-Click(): Vector2 clickPos&lt;br&gt;&lt;/div&gt;&lt;div&gt;&amp;nbsp;-Release(): Vector2 releasePos&lt;/div&gt;&lt;div&gt;&amp;nbsp;-CalcFoldLine(): Vector2 foldLine&lt;/div&gt;" style="verticalAlign=top;align=left;overflow=fill;fontSize=12;fontFamily=Helvetica;html=1;" parent="1" vertex="1">
          <mxGeometry x="520" y="-388.54" width="190" height="204.55" as="geometry" />
        </mxCell>
        <mxCell id="dC7TwkIw_CCHCllpUpHx-27" value="" style="edgeStyle=orthogonalEdgeStyle;rounded=0;orthogonalLoop=1;jettySize=auto;html=1;endArrow=diamond;endFill=1;" parent="1" source="zaY1Wz4RGqaM3Yld15WV-51" target="zaY1Wz4RGqaM3Yld15WV-11" edge="1">
          <mxGeometry relative="1" as="geometry" />
        </mxCell>
        <mxCell id="zaY1Wz4RGqaM3Yld15WV-51" value="Sprite" style="html=1;" parent="1" vertex="1">
          <mxGeometry x="140" y="-1060" width="110" height="50" as="geometry" />
        </mxCell>
        <mxCell id="5g8GK4PqdsMkdadAFYti-3" value="" style="edgeStyle=orthogonalEdgeStyle;rounded=0;orthogonalLoop=1;jettySize=auto;html=1;endArrow=diamond;endFill=1;" parent="1" source="5g8GK4PqdsMkdadAFYti-1" target="zaY1Wz4RGqaM3Yld15WV-9" edge="1">
          <mxGeometry relative="1" as="geometry" />
        </mxCell>
        <mxCell id="5g8GK4PqdsMkdadAFYti-1" value="Checkpoints" style="whiteSpace=wrap;html=1;" parent="1" vertex="1">
          <mxGeometry x="210" y="-730" width="110" height="49" as="geometry" />
        </mxCell>
        <mxCell id="y3YNzSxG_D_wEQ5_DAEk-5" value="" style="edgeStyle=orthogonalEdgeStyle;rounded=0;orthogonalLoop=1;jettySize=auto;html=1;endArrow=diamond;endFill=0;exitX=0.5;exitY=0;exitDx=0;exitDy=0;entryX=0.75;entryY=1;entryDx=0;entryDy=0;" parent="1" source="5g8GK4PqdsMkdadAFYti-4" target="zaY1Wz4RGqaM3Yld15WV-9" edge="1">
          <mxGeometry relative="1" as="geometry">
            <Array as="points">
              <mxPoint x="335" y="-821" />
              <mxPoint x="293" y="-821" />
              <mxPoint x="293" y="-840" />
            </Array>
            <mxPoint x="280" y="-840" as="targetPoint" />
          </mxGeometry>
        </mxCell>
        <mxCell id="5g8GK4PqdsMkdadAFYti-4" value="Un-foldable&lt;br&gt;&amp;nbsp;platforms" style="html=1;" parent="1" vertex="1">
          <mxGeometry x="280" y="-800" width="110" height="50" as="geometry" />
        </mxCell>
        <mxCell id="y3YNzSxG_D_wEQ5_DAEk-6" style="edgeStyle=orthogonalEdgeStyle;rounded=0;orthogonalLoop=1;jettySize=auto;html=1;entryX=0.25;entryY=1;entryDx=0;entryDy=0;endArrow=diamond;endFill=1;exitX=0.5;exitY=0;exitDx=0;exitDy=0;" parent="1" source="y3YNzSxG_D_wEQ5_DAEk-3" target="zaY1Wz4RGqaM3Yld15WV-9" edge="1">
          <mxGeometry relative="1" as="geometry">
            <Array as="points">
              <mxPoint x="195" y="-821" />
              <mxPoint x="238" y="-821" />
              <mxPoint x="238" y="-840" />
            </Array>
            <mxPoint x="252.5" y="-840" as="targetPoint" />
          </mxGeometry>
        </mxCell>
        <mxCell id="y3YNzSxG_D_wEQ5_DAEk-3" value="Ground" style="whiteSpace=wrap;html=1;" parent="1" vertex="1">
          <mxGeometry x="140" y="-801" width="110" height="51" as="geometry" />
        </mxCell>
        <mxCell id="dC7TwkIw_CCHCllpUpHx-15" style="edgeStyle=orthogonalEdgeStyle;rounded=0;orthogonalLoop=1;jettySize=auto;html=1;entryX=0.5;entryY=1;entryDx=0;entryDy=0;endArrow=diamond;endFill=1;" parent="1" source="dC7TwkIw_CCHCllpUpHx-1" target="zaY1Wz4RGqaM3Yld15WV-6" edge="1">
          <mxGeometry relative="1" as="geometry" />
        </mxCell>
        <mxCell id="dC7TwkIw_CCHCllpUpHx-1" value="&lt;p style=&quot;margin: 0px ; margin-top: 4px ; text-align: center&quot;&gt;&lt;b&gt;FoldingBase&lt;/b&gt;&lt;/p&gt;&lt;hr size=&quot;1&quot;&gt;&lt;p style=&quot;margin: 0px ; margin-left: 4px&quot;&gt;&lt;span&gt;#points: List&amp;lt;FoldPoints&amp;gt;&lt;/span&gt;&lt;/p&gt;&lt;p style=&quot;margin: 0px ; margin-left: 4px&quot;&gt;&lt;span&gt;#sprite: SpriteShapeController&lt;/span&gt;&lt;/p&gt;&lt;hr size=&quot;1&quot;&gt;&lt;p style=&quot;margin: 0px ; margin-left: 4px&quot;&gt;+GetPoints(): FoldPoints[ ]&lt;/p&gt;&lt;p style=&quot;margin: 0px ; margin-left: 4px&quot;&gt;+SetPoints(points: FoldPoints[ ]): void&lt;/p&gt;&lt;p style=&quot;margin: 0px ; margin-left: 4px&quot;&gt;+UpdateObject(): void&lt;/p&gt;&lt;p style=&quot;margin: 0px ; margin-left: 4px&quot;&gt;+ResetObject(): void&lt;span&gt;&lt;br&gt;&lt;/span&gt;&lt;/p&gt;&lt;p style=&quot;margin: 0px ; margin-left: 4px&quot;&gt;&lt;span&gt;+AddIntersections(): void&lt;/span&gt;&lt;br&gt;&lt;/p&gt;&lt;p style=&quot;margin: 0px ; margin-left: 4px&quot;&gt;#SetShape(): void&lt;/p&gt;" style="verticalAlign=top;align=left;overflow=fill;fontSize=12;fontFamily=Helvetica;html=1;" parent="1" vertex="1">
          <mxGeometry x="208.75" y="-20" width="232.5" height="170" as="geometry" />
        </mxCell>
        <mxCell id="dC7TwkIw_CCHCllpUpHx-25" value="&lt;p style=&quot;margin: 0px ; margin-top: 4px ; text-align: center&quot;&gt;&lt;b&gt;GameManager&lt;/b&gt;&lt;/p&gt;&lt;hr size=&quot;1&quot;&gt;&lt;p style=&quot;margin: 0px ; margin-left: 4px&quot;&gt;-currentLevel: int&lt;/p&gt;&lt;p style=&quot;margin: 0px ; margin-left: 4px&quot;&gt;+levels: Level[ ]&lt;/p&gt;&lt;hr size=&quot;1&quot;&gt;&amp;nbsp;+GetCurrentLevel(): int&lt;br&gt;&lt;p style=&quot;margin: 0px ; margin-left: 4px&quot;&gt;+LoadLevel(n: int): void&lt;/p&gt;&lt;p style=&quot;margin: 0px ; margin-left: 4px&quot;&gt;+GetLevels(): Level[ ]&lt;/p&gt;" style="verticalAlign=top;align=left;overflow=fill;fontSize=12;fontFamily=Helvetica;html=1;" parent="1" vertex="1">
          <mxGeometry x="245" y="-490" width="160" height="126.25" as="geometry" />
        </mxCell>
        <mxCell id="dC7TwkIw_CCHCllpUpHx-30" style="edgeStyle=orthogonalEdgeStyle;rounded=0;orthogonalLoop=1;jettySize=auto;html=1;entryX=0.5;entryY=0;entryDx=0;entryDy=0;endArrow=diamond;endFill=1;" parent="1" source="dC7TwkIw_CCHCllpUpHx-28" edge="1">
          <mxGeometry relative="1" as="geometry">
            <mxPoint x="279" y="-890" as="targetPoint" />
            <Array as="points">
              <mxPoint x="345" y="-910" />
              <mxPoint x="279" y="-910" />
            </Array>
          </mxGeometry>
        </mxCell>
        <mxCell id="dC7TwkIw_CCHCllpUpHx-28" value="Game Manager" style="html=1;" parent="1" vertex="1">
          <mxGeometry x="280" y="-980" width="110" height="50" as="geometry" />
        </mxCell>
        <mxCell id="UpdANQ4ARTgffwiDii0F-6" value="" style="edgeStyle=orthogonalEdgeStyle;rounded=0;orthogonalLoop=1;jettySize=auto;html=1;endArrow=block;endFill=0;exitX=0.5;exitY=0;exitDx=0;exitDy=0;" parent="1" source="UpdANQ4ARTgffwiDii0F-1" target="zaY1Wz4RGqaM3Yld15WV-16" edge="1">
          <mxGeometry relative="1" as="geometry">
            <mxPoint x="430" y="-740" as="sourcePoint" />
            <Array as="points">
              <mxPoint x="680" y="-719" />
              <mxPoint x="680" y="-775" />
            </Array>
          </mxGeometry>
        </mxCell>
        <mxCell id="UpdANQ4ARTgffwiDii0F-1" value="Folding Platform" style="html=1;" parent="1" vertex="1">
          <mxGeometry x="616.25" y="-719" width="110" height="50" as="geometry" />
        </mxCell>
        <mxCell id="HBH2WMDVjw6LBUJq_JoA-4" style="edgeStyle=orthogonalEdgeStyle;rounded=0;orthogonalLoop=1;jettySize=auto;html=1;entryX=0.25;entryY=1;entryDx=0;entryDy=0;endArrow=block;endFill=0;" parent="1" source="HBH2WMDVjw6LBUJq_JoA-3" target="dC7TwkIw_CCHCllpUpHx-1" edge="1">
          <mxGeometry relative="1" as="geometry" />
        </mxCell>
        <mxCell id="HBH2WMDVjw6LBUJq_JoA-3" value="&lt;p style=&quot;margin: 0px ; margin-top: 4px ; text-align: center&quot;&gt;&lt;b&gt;FoldingArea&lt;/b&gt;&lt;/p&gt;&lt;hr size=&quot;1&quot;&gt;&lt;p style=&quot;margin: 0px ; margin-left: 4px&quot;&gt;&lt;span&gt;#foldedSprite: SpriteShapeController&lt;/span&gt;&lt;/p&gt;&lt;p style=&quot;margin: 0px ; margin-left: 4px&quot;&gt;-foldedColour: Colour&lt;/p&gt;&lt;hr size=&quot;1&quot;&gt;&lt;p style=&quot;margin: 0px ; margin-left: 4px&quot;&gt;&lt;span&gt;#SetShape(): void&lt;/span&gt;&lt;br&gt;&lt;/p&gt;&lt;p style=&quot;margin: 0px 0px 0px 4px&quot;&gt;&lt;br&gt;&lt;/p&gt;&lt;p style=&quot;margin: 0px 0px 0px 4px&quot;&gt;&lt;br&gt;&lt;/p&gt;" style="verticalAlign=top;align=left;overflow=fill;fontSize=12;fontFamily=Helvetica;html=1;" parent="1" vertex="1">
          <mxGeometry x="80" y="230" width="210" height="90" as="geometry" />
        </mxCell>
      </root>
    </mxGraphModel>
  </diagram>
</mxfile>
